<?xml version="1.0" encoding="UTF-8"?>
<svg version="1.1" viewBox="0 0 2000 2000" width="500" height="500" xmlns="http://www.w3.org/2000/svg">
<path transform="translate(0)" d="m0 0h2e3v2e3h-2e3z"/>
<path transform="translate(274,1260)" d="m0 0h51l221 5 349 8 16 1 1 1v26l-1 1-105 2-68 2-98 2-75 2-89 2-70 2-138 3-59 1 6-7 10-9 8-7 30-27z" fill="#FDCB0F"/>
<path transform="translate(843,947)" d="m0 0h84l7 3 3 4 1 3-1 17-13 93-4 20-2 4 25-13 33-22 13-10 13-11 10-9 11-9 12-10 18-12 17-10 13-6 21-8 26-7h5l-4 2-35 11-13 6-14 7-11 7-16 12-16 13-11 10-11 9-15 12-18 13-18 11-18 10-21 10-30 15-36 14-36 12-6 1 2-2 25-9 21-8 43-18 11-6-95-1 1-8 5-15 6-5 2-1 62-1 3-1 4-12-68-1-5-3-2-2v-16l7-48 3-20 4-9 4-4z" fill="#FDCB0F"/>
<path transform="translate(1390,1101)" d="m0 0h9l13 5 9 7 7 7 8 13 6 15 4 16 1 7v30l-5 23-5 14-1 4v7l4-4 8-16 5-17 2 2v8l2 3v22l3 1 13 1-1-25-1-16v-15l51 1 25 1 11 12 10 5 5 1 83 4 29 1h51l27-2 34-4 15-3 11-4 5-2h3l2 10-1 9-5 5-9 4-16 4-23 3-42 3-37 2h-93l-41-1v10l-4-1v-10l-18-1v12h-4l-1-12-17-1v14l-4-1-1-13-16-1-1 14h-4v-15l-18-1 1 15-7 8-9 8-10 6-13 2-18 1h-12l-7-1 1-2 13-5 11-9 6-7h-8v2l-10 8-14 7-10 2h-10l2-2 10-3 10-6 6-5 1-2-5-2v-23l1-4 4-1 2 1v25l4-5 7-15 4-17 2-15 1-13v-10l-2-21-4-16-8-17-6-7-9-6-7-3-5-2z" fill="#FDCB0F"/>
<path transform="translate(251,1224)" d="m0 0h662v22l-1 1h-33l-390-4-163-2h-70l-13 11-10 9-11 9-14 12-11 9-13 12-11 9-4 2 6-7 12-13 9-10 12-13 27-30 9-11z" fill="#FEFDF9"/>
<path transform="translate(1265,963)" d="m0 0h34l47 2 38 4 31 5 37 12 24 9 28 11 24 10 15 6 5 3-4 1-24-2-46-2h-39l-39 1-47 2h-25l-14-3-10-6-13-12-8-8-11-9-8-7-14-10v-4l5-2z" fill="#FDCB0F"/>
<path transform="translate(503,947)" d="m0 0h85l7 3 4 4-1 16-4 26-4 12-4 4-7 2-65 1v6l59 1 9 3 3 6 1 5v15l-63 1h-28l-9-1-5-6v-14l9-62 3-12 4-7z" fill="#FDCB0F"/>
<path transform="translate(256,947)" d="m0 0h96l5 2 3 4v15l-8 57-3 15-3 6-4 4-4 1-22 1h-60l-10-2-3-6 1-15 3-22 4-16 7-6 51-1 20-1v-6l-65-1-4-2-4-7z" fill="#FDCB0F"/>
<path transform="translate(1172,973)" d="m0 0h21l19 3 16 6 11 7 10 8 9 8 9 11 10 15 1 4-1 1-140 6-5-1-5-8-11-18-12-14-4-4v-4l21-8 28-8z" fill="#FDCB0F"/>
<path transform="translate(42,903)" d="m0 0h19l11 2 3 1 1 2v15l-2 17v6l46 1-2 12-4 11-4 4-2 1-10 1-29 1-6 40-1 4 47 1-2 14-3 9-7 6h-61l-5-4-1-2v-12l9-57h-31l2-11 3-11 4-5 6-2 17-1 3-1 4-28v-7l-5-6z" fill="#FDCB0F"/>
<path transform="translate(721,947)" d="m0 0h85l8 3 2 4v16l-7 51-3 17-4 9-4 3-3 1-21 1 1-9 7-51 2-10v-5h-44l-3 8-7 49-3 10-5 5-4 2h-28l5-5 3-7 7-46 5-33 4-9 4-3z" fill="#FDCB0F"/>
<path transform="translate(366,946)" d="m0 0 27 1 5 3 4 5 4 18 6 46v3l24-1 2-3 7-49 4-23 16 1 9 3 2 3v16l-8 58-4 16-4 6-3 2-22 1h-35l-7-1-5-5-3-7-4-24-6-41-3-16-4-8z" fill="#FDCB0F"/>
<path transform="translate(1725,1066)" d="m0 0 14 2 31 7 8 4 6 7 5 12 5 15 1 5v10l-4 3h-25l-53-2-16-2-8-5-7-8-10-16-8-16-2-10 2-2 4-1z" fill="#FDCB0F"/>
<path transform="translate(1487,1030)" d="m0 0h36l43 2 52 5 54 7 28 5 35 8 19 6 16 7-3 1-16-5-16-3h-45l-32 2-5 2-1 5 9 19 12 22 3 6-1 2-13-15-14-15-8-7-14-10-15-10-14-5-28-5-59-9-46-6-48-4v-1l8-1 49-2z" fill="#FDCB0F"/>
<path transform="translate(173,946)" d="m0 0 69 1-1 8-4 13-6 7-7 1-58 1-4 1-2 7-7 49-4 12-5 4-4 1-26 1 2-4 4-6 4-18 8-58 3-11 4-6 5-2z" fill="#FDCB0F"/>
<path transform="translate(645,903)" d="m0 0h5l-1 10-13 94-4 26-3 11-4 5-3 2-12 1h-15l-3-2 7-8 3-16 9-63 7-46 4-9 3-3 3-1z" fill="#FDCB0F"/>
<path transform="translate(1390,1101)" d="m0 0h9l13 5 9 7 7 7 8 13 6 15 4 16 1 7v30l-5 23-5 14-1 4v7l4-4 8-16 5-17 2 2v8l2 3v22l3 1 13 1v-5h1l1 5 3 2-2 4-8 8-13 9-7 2-26 2h-12l-7-1 1-2 13-5 11-9 6-7h-8v2l-10 8-14 7-10 2h-10l2-2 10-3 10-6 6-5 1-2-5-2v-23l1-4 4-1 2 1v25l4-5 7-15 4-17 2-15 1-13v-10l-2-21-4-16-8-17-6-7-9-6-7-3-5-2z" fill="#FDCB0F"/>
<path transform="translate(663,947)" d="m0 0h29l1 2-11 79-4 15-5 6-3 2-11 1-18-1 4-5h2l5-25 10-69z" fill="#FDCB0F"/>
<path transform="translate(1085 1e3)" d="m0 0 6 1 11 10 9 13 6 10 2 4-1 4-19 1-36 1-32 3-9 1 2-4 8-10 8-8 12-9 16-9 13-7z" fill="#FDCB0F"/>
<path transform="translate(1756,1251)" d="m0 0h5l-2 4-12 9-17 9-18 6-8 1h-21l-16-5-14-7-9-7-7-6v-2h72l33-1z" fill="#FDCB0F"/>
<path transform="translate(861,976)" d="m0 0h46l-2 16-5 29-2 1h-44l-1-1 1-12 5-30z"/>
<path transform="translate(1587,1067)" d="m0 0h8l10 3 13 7 9 10 5 10 1 5v7l-4 5-8 3-12-1-14-7-8-8-7-12-2-6v-7l4-6z" fill="#FDCB0F"/>
<path transform="translate(426,1057)" d="m0 0h16l5 2 7 8 1 4v19l-3 7-5 5-3 1h-21l-6-4-4-8v-22l4-7 5-4z" fill="#FDCB0F"/>
<path transform="translate(472,1057)" d="m0 0h20l5 3 5 8 1 6v15l-2 7-7 6-2 1h-20l-6-3-5-8v-23l4-7h2l1-3z" fill="#FDCB0F"/>
<path transform="translate(1524,1067)" d="m0 0 11 1 11 4 12 9 8 8 2 7-1 7-6 5-6 2h-13l-11-4-10-8-6-8-3-7 1-7 6-7z" fill="#FDCB0F"/>
<path transform="translate(1453,1212)" d="m0 0 2 2v8l2 3v22l3 1 13 1v-5h1l1 5 3 2-2 4-8 8-13 9-7 2-26 2h-12l-7-1 1-2 13-5 11-9 6-7-5-1v-14l1-12 4-1 2 5v20l4-4 8-16z" fill="#FDCB0F"/>
<path transform="translate(317,1057)" d="m0 0h30l8 6 3 4 1 9-1 8-6 6v5l4 4v4h-8l-3-3-3-5h-17v8h-9v-45z" fill="#FDCB0F"/>
<path transform="translate(365,1057)" d="m0 0h31l8 7 3 5v12l-3 7-7 6-4 1h-19v8h-9z" fill="#FDCB0F"/>
<path transform="translate(1028,1135)" d="m0 0 5 5 7 11 5 5 8 5 8 3 18 2 65 4 76 4 36 2 10 1v1l-6 1-70-1-48-1-70-1-17-1-9-3-5-4-8-16-5-15z" fill="#FDCB0F"/>
<path transform="translate(280,1057)" d="m0 0h19l8 7 3 5v34h-9v-15l-25 1v14h-8v-33l3-6 6-6z" fill="#FDCB0F"/>
<path transform="translate(629,1057)" d="m0 0h14l8 1 7 7 1 3v7l-4 1-5-2-1-6-5-1h-13l-3 1-1 4v18l1 3 4 2 19 1-1-3-2-1-12-1-2-1-1-8 1-1h17l8 1v20l-1 1-8 1h-17l-8-2-7-8-1-2v-25l7-8z" fill="#FDCB0F"/>
<path transform="translate(697,903)" d="m0 0 2 1-2 17-3 17-6 1h-24l2-16 3-12 4-5 4-2z" fill="#FDCB0F"/>
<path transform="translate(234,1056)" d="m0 0h15l6 3 7 8v8h-8l-3-8-3-1h-14l-3 1-1 2v23l1 3h18l3-3 3-6 1-1h5l1 1v6l-6 9-6 3h-18l-6-3-5-7-1-6v-18l3-7 7-6z" fill="#FDCB0F"/>
<path transform="translate(571,1057)" d="m0 0h23l8 2 6 6v2h2l1 5v31h-9l-1-34-1-1-7-1h-14l-1 2v33l-1 1h-8v-44z" fill="#FDCB0F"/>
<path transform="translate(1077,1189)" d="m0 0h20l61 2 57 1 18 1 2 2-11 1-73 1-113-2v-1z" fill="#FDCB0F"/>
<path transform="translate(474,1066)" d="m0 0h16l3 1 2 6v11l-2 10-5 2h-14l-4-3-1-4v-18l2-4z"/>
<path transform="translate(427,1066)" d="m0 0h15l4 3 1 6v9l-2 10-6 2h-10l-6-2-2-6v-16l2-5z"/>
<path transform="translate(510,1057)" d="m0 0h7l1 1 1 33 1 3 26 1 1 1v6l-1 1h-27l-4-2-6-9v-34z" fill="#FDCB0F"/>
<path transform="translate(375,1066)" d="m0 0h19l3 3 1 11-2 5-2 1h-19l-1-1v-18z"/>
<path transform="translate(919,1274)" d="m0 0h14l1 1v26l-15 1-1-1v-26z" fill="#FDCB0F"/>
<path transform="translate(326,1066)" d="m0 0h20l3 3v12l-3 3h-21l-1-4 1-13z"/>
<path transform="translate(554,1057)" d="m0 0h8v46h-9v-45z" fill="#FDCB0F"/>
<path transform="translate(940,1275)" d="m0 0h15l1 1v24l-1 1h-15z" fill="#FDCB0F"/>
<path transform="translate(522,976)" d="m0 0h41l4 1-1 6-1 1-20 1h-20l-6-1v-6z"/>
<path transform="translate(919,1224)" d="m0 0h15l1 1v21l-2 1h-14l-1-1v-21z" fill="#FEFBED"/>
<path transform="translate(277,1014)" d="m0 0h46l1 3-2 4-2 1h-44l-1-5z"/>
<path transform="translate(963,1275)" d="m0 0h14l1 1v24h-15z" fill="#FDCB0F"/>
<path transform="translate(940,1224)" d="m0 0h16v23h-15l-1-1z" fill="#FEFEFA"/>
<path transform="translate(986,1275)" d="m0 0h12l2 1v23l-1 1h-14v-24z" fill="#FDCB0F"/>
<path transform="translate(1030,1224)" d="m0 0h13l1 1v22l-2 1h-12l-1-1v-22z" fill="#FEF8E1"/>
<path transform="translate(283,1066)" d="m0 0h12l6 2 1 9-1 4h-24l-1-1v-7l2-5z"/>
<path transform="translate(985,1224)" d="m0 0h15v23h-15z" fill="#FEFEFD"/>
<path transform="translate(963,1224)" d="m0 0h14l1 1v21l-1 1h-14z" fill="#FEFEFB"/>
<path transform="translate(1007,1224)" d="m0 0h13l1 1v22l-1 1h-12l-1-1z" fill="#FEFCF5"/>
<path transform="translate(1074,1224)" d="m0 0h12l1 1v22l-2 1h-11l-1-1v-22z" fill="#FEFDF7"/>
<path transform="translate(1052,1224)" d="m0 0h12l1 1v22l-1 1h-12l-1-1v-21z" fill="#FEFBEE"/>
<path transform="translate(1008,1276)" d="m0 0h12l1 1v22h-14v-22z" fill="#FDCB0F"/>
<path transform="translate(1118,1224)" d="m0 0h12l1 1v23l-3 1h-9l-1-1z" fill="#FEFCF5"/>
<path transform="translate(1097,1224)" d="m0 0h11l1 1v11l-1 12-1 1h-10l-1-1v-23z" fill="#FEFBED"/>
<path transform="translate(1029,1277)" d="m0 0h14v21l-1 1h-13z" fill="#FDCB0F"/>
<path transform="translate(1789,1087)" d="m0 0 5 1 6 7 8 15 4 12v3h-5l-7-10-10-21z" fill="#FDCB0F"/>
<path transform="translate(1141,1224)" d="m0 0h11v24l-1 1h-10l-1-1v-23z" fill="#FEFBF0"/>
<path transform="translate(1053,1277)" d="m0 0h11l1 1v21h-13l-1-3 1-18z" fill="#FDCB0F"/>
<path transform="translate(1163,1224)" d="m0 0h11v24l-3 1h-8l-1-2z" fill="#FEFCF1"/>
<path transform="translate(1185,1224)" d="m0 0h11v24l-1 1h-10z" fill="#FEFDF6"/>
<path transform="translate(1207,1224)" d="m0 0h10v25l-1 1h-9l-1-2z" fill="#FEFBF0"/>
<path transform="translate(1073,1278)" d="m0 0h13v20h-13z" fill="#FDCB0F"/>
<path transform="translate(1230,1224)" d="m0 0h9l1 3-1 22-1 1h-8l-1-1v-24z" fill="#FEFAEB"/>
<path transform="translate(1252,1224)" d="m0 0h8l1 1v24l-1 1h-8l-1-1v-24z" fill="#FEFBF0"/>
<path transform="translate(1274,1224)" d="m0 0h8l1 1v18l-1 7h-8l-1-1v-24z" fill="#FEF8E0"/>
<path transform="translate(1097,1278)" d="m0 0h11v19l-2 1h-10v-19z" fill="#FDCB0F"/>
<path transform="translate(1318,1224)" d="m0 0h8l1 1v12l-1 14h-7l-1-1z" fill="#FEFAE9"/>
<path transform="translate(1389,1223)" d="m0 0 3 1v27l-1 1h-6l-1-1v-21l1-6z" fill="#FEF2C3"/>
<path transform="translate(1118,1279)" d="m0 0h12v18h-12z" fill="#FDCB0F"/>
<path transform="translate(1296,1224)" d="m0 0h8v27h-7l-1-1z" fill="#FEFDF7"/>
<path transform="translate(1363,1224)" d="m0 0h7v26l-1 1h-6l-1-1v-22z" fill="#FEF3C8"/>
<path transform="translate(1340,1224)" d="m0 0h8v22l-1 5h-6l-1-1z" fill="#FEF8E0"/>
<path transform="translate(1409,1223)" d="m0 0 4 1v21l-1 7h-5l-1-1v-23l1-4z" fill="#FEF2C3"/>
<path transform="translate(1141,1279)" d="m0 0h10v17l-10 1-1-1v-15z" fill="#FDCB0F"/>
<path transform="translate(1163,1280)" d="m0 0h10l1 1v14l-4 1h-7l-1-5z" fill="#FDCB0F"/>
<path transform="translate(1432,1224)" d="m0 0 3 1 1 4v13l-1 9-4 1-2-1v-14l1-12z" fill="#FEFDF9"/>
<path transform="translate(1186,1280)" d="m0 0h9l1 3v11l-1 1h-10v-14z" fill="#FDCB0F"/>
<path transform="translate(1549,1070)" d="m0 0 5 1 10 5 7 6 4 9 1 8-2 5-3 4h-2l3-10-2-10-7-8-11-7z" fill="#FDCB0F"/>
<path transform="translate(1207,1281)" d="m0 0h9l1 7v5l-2 2h-8l-1-5z" fill="#FDCB0F"/>
<path transform="translate(1454,1224)" d="m0 0 3 1v24l2 1-2 1h-6l1-26z" fill="#FEF7DD"/>
<path transform="translate(1473,1223)" d="m0 0 4 2 2 26-5-2-2-18v-7z" fill="#FEFBEF"/>
<path transform="translate(1230,1282)" d="m0 0h9v11l-1 1h-8l-1-1v-10z" fill="#FDCB0F"/>
<path transform="translate(1518,1224)" d="m0 0 4 1v28l-4-1-1-27z" fill="#FEFDF8"/>
<path transform="translate(1497,1223)" d="m0 0 3 1v28h-4v-28z" fill="#fff"/>
<path transform="translate(1627,1082)" d="m0 0 4 1 5 5 4 6 1 3v8l-2 4-3-1v-9l-3-7z" fill="#FDCB0F"/>
<path transform="translate(1540,1224)" d="m0 0h3l1 4-1 25-3-1z" fill="#FEFEFC"/>
<path transform="translate(1253,1282)" d="m0 0 7 1v10l-2 1h-6v-11z" fill="#FDCB0F"/>
<path transform="translate(1274,1283)" d="m0 0h7l1 1v9l-7 1-2-2v-8z" fill="#FDCB0F"/>
<path transform="translate(1297,1283)" d="m0 0h5l2 2v7l-1 1h-5l-2-5z" fill="#FDCB0F"/>
<path transform="translate(1319,1284)" d="m0 0h7v8h-8v-7z" fill="#FDCB0F"/>
<path transform="translate(1562,1225)" d="m0 0h3l1 3v8l-2 5-2-1z" fill="#fff"/>
<path transform="translate(1342,1284)" d="m0 0 5 1v6l-4 1-3-3v-4z" fill="#FDCB0F"/>
<path transform="translate(1364,1285)" d="m0 0h5l1 3-1 3-6-1-1-4z" fill="#FDCB0F"/>
<path transform="translate(1386,1285)" d="m0 0 5 1-1 5-5-1z" fill="#FDCB0F"/>
</svg>
